 <svg version="1.0" xmlns="http://www.w3.org/2000/svg" width="700.000000pt" height="106.000000pt" viewBox="0 0 700.000000 106.000000" preserveAspectRatio="xMidYMid meet">
<metadata>
Created by potrace 1.12, written by Peter Selinger 2001-2015
</metadata>
<g transform="translate(0.000000,106.000000) scale(0.100000,-0.100000)" fill="#000000" stroke="none">
<path d="M1560 1045 l-105 -11 55 -26 c30 -14 62 -36 70 -49 13 -20 15 -88 18
-416 2 -215 -1 -406 -6 -424 -11 -45 -51 -72 -114 -78 -5 -1 -8 -5 -8 -11 0
-6 67 -10 181 -10 160 0 180 2 169 15 -7 8 -23 15 -37 15 -13 0 -34 10 -47 23
-21 21 -23 34 -29 176 -4 85 -7 302 -7 483 0 306 -1 328 -17 326 -10 0 -65 -6
-123 -13z"></path>
<path d="M6712 1048 c3 -7 18 -15 34 -20 52 -14 54 -24 54 -250 0 -114 -3
-208 -6 -208 -3 0 -17 14 -32 31 -77 93 -223 90 -330 -6 -113 -102 -151 -274
-90 -417 37 -87 162 -178 243 -178 56 0 118 34 168 91 l47 54 0 -62 0 -63 101
0 c89 0 100 2 89 15 -7 8 -21 15 -30 15 -10 0 -28 12 -39 26 -21 26 -21 36
-21 505 l0 479 -96 0 c-70 0 -95 -3 -92 -12z m-1 -431 c19 -12 45 -44 59 -72
33 -67 40 -221 15 -325 -48 -197 -228 -234 -318 -65 -17 33 -22 62 -25 161 -6
175 21 256 102 305 44 27 123 25 167 -4z"></path>
<path d="M217 1010 c-67 -21 -100 -41 -144 -88 -101 -107 -75 -275 56 -359 25
-17 89 -44 141 -62 106 -37 151 -55 195 -78 78 -41 115 -103 115 -192 0 -50
-5 -66 -33 -107 -44 -64 -102 -93 -184 -94 -124 0 -227 78 -299 227 -63 131
-74 112 -53 -87 15 -147 19 -170 29 -170 5 0 14 16 20 36 14 43 31 51 62 30
40 -26 178 -66 227 -66 98 0 196 44 263 118 62 69 73 97 73 193 0 82 -2 89
-34 137 -48 69 -120 113 -265 162 -211 70 -270 120 -263 222 10 130 134 198
273 151 62 -21 165 -121 194 -187 18 -43 40 -61 40 -33 0 42 -31 252 -38 259
-5 5 -14 -4 -22 -21 -7 -17 -17 -31 -22 -31 -6 0 -50 14 -100 30 -102 34 -149
36 -231 10z"></path>
<path d="M4016 1010 c-195 -52 -337 -181 -391 -354 -24 -79 -24 -233 0 -308
53 -159 193 -281 377 -329 90 -23 167 -24 261 -3 79 18 255 95 275 121 7 11
12 51 12 107 0 162 15 192 99 205 19 4 36 12 39 19 3 10 -43 12 -222 10 -140
-2 -227 -7 -229 -13 -1 -5 24 -12 55 -15 69 -6 99 -30 116 -95 18 -69 15 -175
-6 -206 -49 -73 -138 -119 -230 -119 -107 0 -196 42 -275 130 -140 156 -167
397 -67 605 118 246 364 307 574 142 38 -31 116 -140 136 -191 10 -26 30 -36
30 -14 0 40 -24 238 -30 248 -6 9 -14 8 -34 -5 -26 -17 -29 -17 -114 18 -168
70 -252 80 -376 47z"></path>
<path d="M970 650 c-103 -35 -154 -128 -98 -180 12 -11 25 -20 29 -20 20 0 49
41 63 90 8 31 27 66 40 79 21 20 33 23 76 19 60 -6 92 -31 109 -87 33 -111 8
-136 -209 -216 -48 -18 -86 -40 -107 -62 -77 -80 -66 -200 22 -250 70 -40 170
-24 249 39 39 32 55 28 56 -13 0 -45 85 -63 171 -37 38 11 52 27 27 29 -7 1
-17 2 -23 4 -5 1 -18 3 -27 3 -10 1 -25 17 -35 35 -15 27 -18 66 -21 267 l-4
235 -25 27 c-53 55 -191 73 -293 38z m228 -380 c-6 -111 -29 -167 -86 -202
-70 -43 -142 -21 -172 53 -28 66 27 157 120 201 19 9 55 30 80 47 58 39 64 29
58 -99z"></path>
<path d="M2147 655 c-81 -30 -161 -109 -198 -193 -14 -33 -19 -68 -19 -138 0
-81 4 -103 26 -149 84 -178 324 -231 469 -103 64 56 59 80 -5 33 -118 -86
-236 -79 -313 19 -46 57 -58 90 -64 172 -5 63 -4 72 13 79 11 4 108 10 216 13
233 6 230 4 204 90 -14 43 -30 69 -70 107 -79 77 -171 102 -259 70z m151 -35
c68 -42 95 -138 50 -180 -20 -18 -35 -20 -160 -20 l-138 0 0 33 c1 49 40 118
88 154 52 39 109 44 160 13z"></path>
<path d="M2765 654 c-51 -19 -67 -31 -99 -78 -30 -45 -35 -110 -11 -157 15
-29 88 -89 108 -89 26 0 160 -76 186 -106 40 -45 48 -78 27 -120 -31 -67 -118
-93 -193 -57 -40 19 -104 98 -128 160 -10 24 -21 41 -25 38 -8 -5 -2 -215 6
-224 2 -2 12 4 23 13 18 16 23 16 93 -8 41 -14 90 -26 109 -26 53 0 139 49
174 99 26 37 30 51 30 111 0 103 -29 132 -209 210 -130 56 -170 121 -112 183
29 31 63 41 120 35 62 -7 93 -33 132 -110 47 -93 58 -89 51 17 -7 99 -12 112
-36 91 -15 -14 -23 -13 -76 9 -68 28 -112 30 -170 9z"></path>
<path d="M5023 656 c-91 -29 -167 -98 -209 -191 -39 -84 -39 -196 -1 -271 49
-96 104 -144 201 -177 106 -36 213 -9 305 77 77 73 111 150 111 255 0 56 -6
93 -19 124 -63 146 -239 229 -388 183z m155 -30 c85 -45 142 -165 142 -302 0
-169 -91 -294 -213 -294 -112 0 -207 143 -207 311 0 116 61 247 131 282 42 20
111 22 147 3z"></path>
<path d="M5780 653 c-98 -35 -183 -119 -215 -212 -19 -57 -19 -166 0 -222 34
-96 112 -171 214 -204 142 -46 314 38 385 190 36 75 37 206 2 280 -28 60 -100
129 -164 157 -62 28 -163 33 -222 11z m171 -36 c48 -33 93 -95 113 -161 24
-75 19 -232 -9 -286 -50 -100 -115 -145 -196 -138 -94 9 -159 89 -187 229 -15
76 -15 89 0 161 20 95 64 170 117 198 51 27 120 26 162 -3z"></path>
</g>
</svg>