 <svg version="1.0" xmlns="http://www.w3.org/2000/svg" width="700.000000pt" height="105.000000pt" viewBox="0 0 700.000000 105.000000" preserveAspectRatio="xMidYMid meet">
<metadata>
Created by potrace 1.12, written by Peter Selinger 2001-2015
</metadata>
<g transform="translate(0.000000,105.000000) scale(0.100000,-0.100000)" fill="#000000" stroke="none">
<path d="M1677 1036 c-4 -10 -32 -16 -96 -21 -50 -4 -91 -11 -91 -16 0 -4 18
-13 40 -19 26 -7 49 -23 67 -47 l28 -36 0 -405 0 -404 -33 -29 c-20 -18 -43
-29 -61 -29 -16 0 -31 -6 -35 -15 -5 -13 19 -15 175 -15 138 0 180 3 177 12
-3 7 -19 16 -38 19 -18 4 -44 19 -59 33 l-26 26 -3 480 c-3 457 -4 480 -22
480 -10 0 -20 -6 -23 -14z"></path>
<path d="M6720 1039 c0 -5 14 -15 30 -21 17 -5 35 -18 40 -28 6 -11 10 -109
10 -225 0 -174 -2 -207 -15 -211 -19 -8 -19 -24 0 -60 22 -42 21 -244 -2 -313
-15 -47 -15 -52 0 -69 11 -12 17 -36 17 -65 l0 -47 100 0 c82 0 100 3 100 15
0 9 -9 15 -25 15 -14 0 -35 12 -50 27 l-25 28 0 482 0 483 -90 0 c-56 0 -90
-4 -90 -11z"></path>
<path d="M266 1001 c-9 -14 20 -21 88 -21 92 0 192 -60 246 -149 14 -22 29
-41 34 -41 10 0 2 177 -8 188 -4 3 -15 1 -24 -6 -33 -23 -44 -25 -72 -8 -16 9
-37 16 -47 16 -11 0 -28 7 -39 15 -21 16 -169 21 -178 6z"></path>
<path d="M4067 1004 c-3 -3 -25 -10 -49 -15 -68 -15 -186 -79 -237 -129 -127
-124 -180 -287 -146 -451 26 -129 73 -205 178 -286 76 -59 117 -80 185 -94 28
-6 52 -15 52 -20 0 -5 50 -9 111 -9 84 0 110 3 107 13 -3 8 -35 14 -91 18
-100 7 -173 38 -241 104 -103 100 -146 209 -146 373 0 110 15 172 65 267 39
75 139 175 176 175 7 0 20 6 28 14 14 13 48 18 189 25 7 1 10 6 7 11 -6 11
-177 14 -188 4z"></path>
<path d="M180 969 c-122 -73 -169 -192 -119 -297 39 -80 78 -109 232 -176 21
-9 43 -16 49 -16 23 0 144 -53 176 -77 18 -14 47 -43 63 -66 38 -53 41 -140 7
-196 -24 -39 -66 -81 -79 -81 -5 0 -9 -4 -9 -10 0 -5 9 -10 21 -10 32 0 111
66 152 128 35 53 37 61 37 135 0 67 -4 85 -26 123 -15 25 -43 58 -63 75 -39
31 -108 69 -126 69 -5 0 -22 6 -37 14 -15 8 -40 17 -56 20 -33 8 -122 44 -169
69 -95 50 -108 177 -28 260 55 57 42 76 -25 36z"></path>
<path d="M4315 970 c-7 -11 42 -26 53 -16 7 8 -17 26 -35 26 -6 0 -15 -4 -18
-10z"></path>
<path d="M4380 941 c0 -5 17 -22 38 -37 36 -26 112 -114 112 -130 0 -4 10 -23
23 -41 23 -34 44 -45 33 -16 -4 9 -11 61 -17 117 -6 55 -12 102 -15 105 -2 2
-12 -3 -22 -12 -25 -23 -60 -21 -97 3 -32 21 -55 26 -55 11z"></path>
<path d="M1010 625 c-14 -8 -32 -14 -41 -15 -22 0 -76 -60 -84 -92 -5 -21 -1
-33 18 -52 31 -31 64 -25 74 13 10 44 51 118 68 125 9 3 38 6 63 6 84 -1 135
-74 112 -159 -8 -29 -7 -53 1 -86 15 -58 5 -206 -16 -248 -14 -28 -13 -31 4
-43 10 -7 24 -27 31 -44 l12 -30 89 0 c74 0 87 2 83 15 -4 8 -16 15 -28 15
-62 1 -70 31 -76 296 -6 262 -4 257 -88 294 -55 24 -183 27 -222 5z"></path>
<path d="M2185 631 c-3 -5 -18 -12 -34 -16 -45 -10 -136 -98 -166 -162 -25
-52 -27 -64 -23 -158 3 -99 4 -102 43 -159 31 -46 54 -66 98 -88 31 -16 57
-33 57 -39 0 -5 41 -9 91 -9 68 0 90 3 87 13 -3 7 -28 14 -60 17 -116 11 -211
131 -212 269 -1 61 1 65 24 72 14 4 112 7 218 8 l192 1 0 48 c0 79 -69 157
-170 195 -49 18 -135 23 -145 8z m173 -67 c38 -41 43 -52 40 -87 -5 -60 -43
-77 -175 -77 -114 0 -153 10 -153 39 0 11 4 22 9 25 4 3 11 18 14 33 6 28 28
55 77 93 18 14 41 19 85 20 58 0 61 -1 103 -46z"></path>
<path d="M2770 625 c-7 -8 -20 -15 -30 -15 -22 0 -50 -26 -78 -71 -46 -76 -17
-155 76 -207 13 -7 63 -33 111 -58 113 -57 134 -80 134 -141 0 -37 -4 -50 -21
-61 -12 -8 -22 -21 -22 -29 0 -22 40 -7 68 25 62 72 78 151 42 209 -22 37 -95
93 -119 93 -9 0 -25 6 -36 14 -11 7 -31 17 -45 21 -44 14 -100 55 -120 87 -16
27 -17 35 -5 57 24 48 46 60 118 63 87 4 92 22 6 26 -50 2 -69 -1 -79 -13z"></path>
<path d="M5041 626 c-8 -9 -26 -16 -41 -16 -38 0 -110 -58 -152 -122 -46 -69
-50 -85 -50 -180 1 -61 6 -89 24 -124 28 -56 120 -143 160 -151 16 -3 32 -12
35 -19 8 -21 173 -20 173 1 0 12 -13 15 -56 15 -70 0 -115 21 -159 74 -50 61
-70 126 -69 226 0 74 4 93 32 152 21 42 46 78 71 97 34 27 47 31 100 31 48 0
69 -5 94 -22 148 -104 169 -384 38 -505 -13 -13 -28 -23 -32 -23 -5 0 -9 -7
-9 -15 0 -41 103 14 162 86 42 52 78 146 78 205 0 109 -93 241 -196 279 -69
25 -186 31 -203 11z"></path>
<path d="M5814 625 c-4 -8 -18 -15 -33 -15 -49 0 -139 -77 -179 -155 -22 -43
-25 -63 -25 -141 0 -80 3 -96 27 -136 35 -61 118 -137 157 -145 17 -3 33 -12
36 -19 7 -19 177 -20 171 -1 -3 7 -31 14 -71 18 -51 4 -74 12 -102 33 -79 61
-120 164 -113 284 7 96 34 160 93 218 43 43 46 44 109 44 57 0 69 -4 108 -33
141 -107 154 -381 24 -495 -69 -60 -27 -73 50 -16 64 47 110 108 134 178 25
70 25 98 0 176 -29 90 -75 142 -165 185 -63 30 -85 35 -145 35 -54 0 -72 -4
-76 -15z"></path>
<path d="M6504 615 c-57 -26 -122 -94 -156 -163 -19 -40 -23 -63 -23 -147 0
-92 2 -104 29 -148 29 -49 91 -104 139 -125 15 -6 27 -16 27 -22 0 -6 29 -10
71 -10 52 0 70 3 67 13 -3 6 -25 14 -49 17 -88 10 -135 66 -165 193 -15 68
-16 88 -6 155 18 118 29 149 74 192 37 36 46 39 102 42 79 4 79 22 1 25 -45 1
-73 -4 -111 -22z"></path>
<path d="M3015 620 c-3 -5 -24 -10 -46 -10 -44 0 -50 -12 -15 -35 13 -9 34
-36 47 -60 13 -25 27 -45 31 -45 11 0 10 148 -1 155 -5 3 -12 1 -16 -5z"></path>
<path d="M6720 596 c0 -2 7 -9 15 -16 12 -10 15 -10 15 4 0 9 -7 16 -15 16 -8
0 -15 -2 -15 -4z"></path>
<path d="M4267 464 c-14 -14 7 -24 52 -24 41 0 52 -5 81 -35 l33 -34 1 -111 1
-111 -43 -39 c-24 -22 -47 -40 -51 -40 -5 0 -14 -7 -21 -15 -26 -32 72 -13
140 26 8 5 29 15 45 22 52 24 57 38 63 168 l5 120 31 24 c17 13 44 25 60 27
16 2 31 9 34 16 3 9 -44 12 -210 12 -118 0 -218 -3 -221 -6z"></path>
<path d="M1055 348 c-140 -57 -171 -84 -197 -170 -10 -34 -8 -44 12 -88 13
-28 29 -50 37 -50 7 0 18 -9 25 -20 11 -17 24 -20 86 -20 54 0 73 3 70 12 -3
7 -19 15 -36 19 -41 8 -60 24 -78 68 -26 61 -11 118 43 168 25 23 65 52 89 63
82 40 40 55 -51 18z"></path>
<path d="M42 189 c6 -139 15 -164 46 -136 24 22 40 21 93 -3 24 -11 56 -20 72
-20 17 0 27 -5 27 -15 0 -12 18 -15 100 -15 84 0 98 2 94 15 -5 12 -26 15
-100 15 -52 0 -94 4 -94 8 0 5 -22 23 -49 40 -54 36 -115 111 -150 190 -14 28
-29 52 -34 52 -6 0 -8 -49 -5 -131z"></path>
<path d="M2634 176 c-3 -7 -4 -42 -2 -77 l3 -64 35 -1 c89 -2 100 -4 100 -19
0 -12 15 -15 75 -15 60 0 75 3 75 15 0 12 -13 15 -58 15 -49 0 -66 5 -98 28
-40 29 -85 83 -97 115 -8 20 -26 22 -33 3z"></path>
<path d="M2460 100 c-14 -10 -21 -22 -17 -26 4 -4 17 3 28 15 27 29 21 35 -11
11z"></path>
<path d="M6735 89 c-4 -6 -5 -13 -2 -16 7 -7 27 6 27 18 0 12 -17 12 -25 -2z"></path>
<path d="M2400 50 c0 -5 4 -10 9 -10 6 0 13 5 16 10 3 6 -1 10 -9 10 -9 0 -16
-4 -16 -10z"></path>
<path d="M6700 49 c0 -5 5 -7 10 -4 6 3 10 8 10 11 0 2 -4 4 -10 4 -5 0 -10
-5 -10 -11z"></path>
</g>
</svg>