 <svg version="1.0" xmlns="http://www.w3.org/2000/svg" width="700.000000pt" height="106.000000pt" viewBox="0 0 700.000000 106.000000" preserveAspectRatio="xMidYMid meet">
<metadata>
Created by potrace 1.12, written by Peter Selinger 2001-2015
</metadata>
<g transform="translate(0.000000,106.000000) scale(0.100000,-0.100000)" fill="#000000" stroke="none">
<path d="M6710 1050 c0 -6 13 -13 30 -16 53 -11 55 -19 58 -252 l3 -216 -39
41 c-48 50 -96 67 -171 61 -108 -8 -190 -71 -244 -186 -28 -60 -32 -77 -32
-157 0 -78 4 -97 28 -147 48 -98 148 -167 241 -168 80 0 137 34 199 120 l17
25 -2 -40 c-1 -22 -1 -52 0 -67 l2 -28 94 0 c94 0 136 14 76 26 -17 4 -40 18
-51 33 -21 26 -21 30 -14 462 4 240 4 455 0 478 l-7 41 -94 0 c-57 0 -94 -4
-94 -10z m1 -433 c19 -12 45 -44 59 -72 23 -45 25 -62 25 -175 0 -149 -16
-208 -73 -262 -69 -66 -109 -73 -178 -33 -67 39 -98 112 -102 240 -8 213 55
325 183 325 37 0 62 -6 86 -23z"></path>
<path d="M1620 1039 c-25 -4 -72 -12 -105 -17 -43 -6 -54 -11 -40 -16 59 -21
92 -44 107 -76 16 -32 18 -74 18 -423 0 -331 -2 -392 -15 -418 -17 -31 -49
-49 -91 -49 -13 0 -24 -4 -24 -10 0 -6 67 -10 180 -10 169 0 228 10 142 24
-21 3 -47 15 -58 27 -18 20 -19 46 -24 498 -3 262 -7 477 -8 479 -3 3 -33 0
-82 -9z"></path>
<path d="M4035 1025 c-257 -57 -425 -260 -425 -514 0 -184 70 -316 218 -414
127 -85 283 -115 432 -83 103 22 282 112 291 146 4 14 7 77 8 142 1 116 1 116
31 141 16 14 47 28 70 32 22 4 40 11 40 17 0 14 -453 3 -458 -11 -2 -7 16 -11
47 -11 41 0 56 -5 81 -27 38 -34 49 -79 50 -190 0 -78 -2 -84 -32 -118 -17
-20 -54 -50 -82 -66 -44 -25 -61 -29 -128 -29 -97 0 -168 25 -234 83 -173 152
-217 423 -107 655 34 72 113 156 178 191 44 23 61 26 150 26 95 0 103 -2 163
-34 76 -41 157 -126 195 -203 27 -58 42 -75 50 -61 8 13 -23 267 -33 277 -6 6
-16 3 -28 -7 -26 -24 -50 -21 -127 14 -123 56 -234 70 -350 44z"></path>
<path d="M204 1002 c-200 -71 -253 -282 -104 -416 46 -42 87 -61 237 -113 182
-63 248 -125 247 -232 0 -61 -17 -101 -61 -145 -40 -41 -83 -56 -161 -56 -125
0 -222 74 -298 227 -20 40 -40 73 -45 73 -18 0 0 -303 19 -322 7 -7 16 0 26
20 9 17 20 33 26 37 5 3 32 -6 60 -20 121 -61 250 -70 353 -22 188 86 252 291
136 438 -42 54 -99 85 -256 140 -73 26 -152 58 -176 73 -98 56 -104 184 -14
263 112 98 307 21 396 -154 21 -42 58 -61 47 -25 -2 9 -10 65 -17 124 -11 103
-25 148 -36 121 -2 -7 -12 -22 -21 -33 l-17 -21 -60 27 c-79 37 -204 44 -281
16z"></path>
<path d="M975 656 c-79 -25 -125 -72 -125 -129 0 -28 28 -57 57 -57 28 0 50
28 64 83 14 59 47 87 101 87 59 0 94 -23 113 -75 22 -56 15 -112 -18 -141 -14
-11 -77 -40 -140 -63 -95 -35 -123 -50 -151 -81 -43 -48 -60 -104 -47 -160 17
-76 67 -110 161 -110 71 0 112 15 163 59 l36 32 7 -28 c11 -48 21 -53 98 -53
84 0 116 7 116 26 0 9 -10 11 -34 7 -29 -5 -37 -1 -53 23 -16 25 -19 57 -23
270 -5 240 -5 243 -29 268 -47 50 -201 72 -296 42z m225 -351 c0 -44 -5 -98
-10 -119 -16 -72 -70 -124 -137 -133 -34 -4 -45 -1 -72 23 -34 31 -49 82 -37
128 10 42 55 85 136 132 43 24 84 51 91 60 20 25 29 -2 29 -91z"></path>
<path d="M2144 658 c-49 -16 -126 -79 -161 -132 -43 -63 -57 -114 -57 -208 0
-66 5 -85 33 -142 36 -74 93 -127 161 -151 54 -19 152 -19 217 0 57 17 150 92
134 108 -6 6 -23 -1 -49 -22 -124 -98 -261 -75 -338 55 -27 46 -44 131 -37
182 l5 32 197 0 c108 0 207 3 220 7 22 5 23 10 18 54 -3 26 -13 62 -22 79 -23
44 -84 102 -130 125 -46 22 -145 29 -191 13z m154 -38 c67 -41 96 -145 53
-185 -24 -20 -156 -32 -246 -20 l-57 7 7 36 c25 137 149 219 243 162z"></path>
<path d="M2745 651 c-108 -50 -144 -172 -77 -259 10 -13 74 -51 142 -85 95
-47 130 -70 147 -96 65 -97 -20 -191 -150 -167 -47 9 -110 74 -144 147 -15 33
-31 59 -35 59 -10 0 -11 -214 -1 -223 3 -4 16 2 28 13 l21 20 62 -25 c74 -30
150 -32 207 -6 133 61 168 235 64 314 -19 14 -83 48 -144 77 -116 54 -144 78
-145 123 0 66 52 102 137 95 66 -6 99 -34 139 -119 16 -33 33 -58 39 -56 10 4
9 144 -2 181 -5 19 -6 19 -19 2 -14 -20 -30 -19 -99 8 -54 21 -122 19 -170 -3z"></path>
<path d="M5030 661 c-87 -28 -167 -98 -211 -183 -31 -60 -38 -186 -14 -259 24
-72 119 -168 189 -192 63 -21 159 -22 220 -1 65 22 158 110 193 182 36 76 40
202 7 273 -53 114 -154 180 -283 185 -42 2 -87 0 -101 -5z m149 -35 c39 -20
89 -80 114 -135 17 -37 21 -67 21 -156 1 -94 -2 -117 -22 -160 -42 -92 -99
-135 -179 -135 -59 0 -101 24 -143 82 -46 64 -63 134 -58 247 3 86 7 103 37
159 25 45 46 70 75 87 47 29 112 33 155 11z"></path>
<path d="M5790 661 c-97 -32 -185 -115 -220 -209 -30 -79 -25 -195 13 -268 33
-64 113 -137 174 -158 60 -21 156 -20 217 0 65 22 158 110 193 182 24 49 28
69 28 142 0 98 -20 152 -80 218 -55 62 -131 95 -224 98 -42 2 -87 0 -101 -5z
m164 -44 c79 -48 126 -156 126 -288 0 -95 -22 -166 -68 -219 -44 -52 -80 -70
-139 -70 -85 0 -157 68 -189 178 -23 78 -15 220 15 287 55 123 160 169 255
112z"></path>
</g>
</svg>